<svg xmlns="http://www.w3.org/2000/svg" viewBox="0 0 500 660" font-family="'Helvetica Neue', Helvetica, Arial, sans-serif">

  <rect width="500" height="660" rx="12" fill="white"/>

  <rect x="10" y="10" width="480" height="270" rx="6" fill="white" stroke="#ddd" stroke-width="1.5"/>
  <rect x="10" y="300" width="232" height="350" rx="6" fill="white" stroke="#ddd" stroke-width="1.5"/>
  <rect x="258" y="300" width="232" height="350" rx="6" fill="white" stroke="#ddd" stroke-width="1.5"/>

  <text x="250" y="36" text-anchor="middle" font-size="17" font-weight="600" fill="#1a1a1a">Metadata Leak</text>
  <text x="250" y="54" text-anchor="middle" font-size="11" fill="#888">Grouping reveals who talks to whom</text>

  <text x="110" y="76" text-anchor="middle" font-size="12" fill="#c0392b" font-weight="500">Convo 1</text>
  <text x="250" y="76" text-anchor="middle" font-size="12" fill="#2c3e9b" font-weight="500">Convo 2</text>
  <text x="390" y="76" text-anchor="middle" font-size="12" fill="#27864a" font-weight="500">Convo 3</text>

  <circle cx="110" cy="94"  r="7" fill="#c0392b"/>
  <circle cx="110" cy="117" r="7" fill="#c0392b"/>
  <circle cx="110" cy="140" r="7" fill="#c0392b"/>
  <circle cx="110" cy="163" r="7" fill="#c0392b"/>
  <circle cx="110" cy="186" r="7" fill="#c0392b"/>
  <circle cx="110" cy="209" r="7" fill="#c0392b"/>
  <circle cx="110" cy="232" r="7" fill="#c0392b"/>
  <circle cx="110" cy="255" r="7" fill="#c0392b"/>

  <circle cx="250" cy="94"  r="7" fill="#2c3e9b"/>
  <circle cx="250" cy="121" r="7" fill="#2c3e9b"/>
  <circle cx="250" cy="148" r="7" fill="#2c3e9b"/>
  <circle cx="250" cy="175" r="7" fill="#2c3e9b"/>
  <circle cx="250" cy="202" r="7" fill="#2c3e9b"/>
  <circle cx="250" cy="229" r="7" fill="#2c3e9b"/>

  <circle cx="390" cy="94"  r="7" fill="#27864a"/>
  <circle cx="390" cy="117" r="7" fill="#27864a"/>
  <circle cx="390" cy="140" r="7" fill="#27864a"/>
  <circle cx="390" cy="163" r="7" fill="#27864a"/>
  <circle cx="390" cy="186" r="7" fill="#27864a"/>
  <circle cx="390" cy="209" r="7" fill="#27864a"/>
  <circle cx="390" cy="232" r="7" fill="#27864a"/>

  <rect x="88"  y="82" width="44" height="185" rx="10" fill="none" stroke="#c0392b" stroke-width="1" stroke-dasharray="4 3" opacity="0.35"/>
  <rect x="228" y="82" width="44" height="159" rx="10" fill="none" stroke="#2c3e9b" stroke-width="1" stroke-dasharray="4 3" opacity="0.35"/>
  <rect x="368" y="82" width="44" height="162" rx="10" fill="none" stroke="#27864a" stroke-width="1" stroke-dasharray="4 3" opacity="0.35"/>

  <text x="126" y="330" text-anchor="middle" font-size="15" font-weight="600" fill="#1a1a1a">External view - no metadata</text>

  <circle cx="44"  cy="373" r="6" fill="#333"/>
  <circle cx="102" cy="365" r="6" fill="#333"/>
  <circle cx="163" cy="377" r="6" fill="#333"/>
  <circle cx="212" cy="369" r="6" fill="#333"/>
  <circle cx="59"  cy="417" r="6" fill="#333"/>
  <circle cx="120" cy="409" r="6" fill="#333"/>
  <circle cx="175" cy="421" r="6" fill="#333"/>
  <circle cx="34"  cy="469" r="6" fill="#333"/>
  <circle cx="89"  cy="477" r="6" fill="#333"/>
  <circle cx="157" cy="461" r="6" fill="#333"/>
  <circle cx="218" cy="473" r="6" fill="#333"/>
  <circle cx="53"  cy="524" r="6" fill="#333"/>
  <circle cx="108" cy="532" r="6" fill="#333"/>
  <circle cx="163" cy="516" r="6" fill="#333"/>
  <circle cx="218" cy="532" r="6" fill="#333"/>
  <circle cx="34"  cy="580" r="6" fill="#333"/>
  <circle cx="96"  cy="588" r="6" fill="#333"/>
  <circle cx="151" cy="572" r="6" fill="#333"/>
  <circle cx="206" cy="592" r="6" fill="#333"/>
  <circle cx="71"  cy="632" r="6" fill="#333"/>
  <circle cx="151" cy="640" r="6" fill="#333"/>

  <text x="374" y="330" text-anchor="middle" font-size="15" font-weight="600" fill="#1a1a1a">User View</text>

  <circle cx="290" cy="362" r="4" fill="#c0392b"/>
  <text x="298" y="366" font-size="9" fill="#555">Convo 1</text>
  <circle cx="348" cy="362" r="4" fill="#2c3e9b"/>
  <text x="356" y="366" font-size="9" fill="#555">Convo 2</text>
  <circle cx="410" cy="362" r="4" fill="#27864a"/>
  <text x="418" y="366" font-size="9" fill="#555">Convo 3</text>

  <line x1="292" y1="392" x2="350" y2="385" stroke="#c0392b" stroke-width="1.5" opacity="0.55"/>
  <line x1="350" y1="385" x2="307" y2="433" stroke="#c0392b" stroke-width="1.5" opacity="0.55"/>
  <line x1="307" y1="433" x2="282" y2="481" stroke="#c0392b" stroke-width="1.5" opacity="0.55"/>
  <line x1="282" y1="481" x2="301" y2="533" stroke="#c0392b" stroke-width="1.5" opacity="0.55"/>
  <line x1="301" y1="533" x2="282" y2="585" stroke="#c0392b" stroke-width="1.5" opacity="0.55"/>
  <line x1="282" y1="585" x2="399" y2="577" stroke="#c0392b" stroke-width="1.5" opacity="0.55"/>
  <line x1="399" y1="577" x2="319" y2="633" stroke="#c0392b" stroke-width="1.5" opacity="0.55"/>

  <line x1="411" y1="396" x2="460" y2="389" stroke="#2c3e9b" stroke-width="1.5" opacity="0.55"/>
  <line x1="460" y1="389" x2="423" y2="437" stroke="#2c3e9b" stroke-width="1.5" opacity="0.55"/>
  <line x1="423" y1="437" x2="405" y2="474" stroke="#2c3e9b" stroke-width="1.5" opacity="0.55"/>
  <line x1="405" y1="474" x2="411" y2="525" stroke="#2c3e9b" stroke-width="1.5" opacity="0.55"/>
  <line x1="411" y1="525" x2="454" y2="596" stroke="#2c3e9b" stroke-width="1.5" opacity="0.55"/>

  <line x1="368" y1="426" x2="337" y2="488" stroke="#27864a" stroke-width="1.5" opacity="0.55"/>
  <line x1="337" y1="488" x2="466" y2="485" stroke="#27864a" stroke-width="1.5" opacity="0.55"/>
  <line x1="466" y1="485" x2="356" y2="540" stroke="#27864a" stroke-width="1.5" opacity="0.55"/>
  <line x1="356" y1="540" x2="466" y2="540" stroke="#27864a" stroke-width="1.5" opacity="0.55"/>
  <line x1="466" y1="540" x2="344" y2="592" stroke="#27864a" stroke-width="1.5" opacity="0.55"/>
  <line x1="344" y1="592" x2="399" y2="640" stroke="#27864a" stroke-width="1.5" opacity="0.55"/>

  <circle cx="292" cy="392" r="6" fill="#333"/>
  <circle cx="350" cy="385" r="6" fill="#333"/>
  <circle cx="411" cy="396" r="6" fill="#333"/>
  <circle cx="460" cy="389" r="6" fill="#333"/>
  <circle cx="307" cy="433" r="6" fill="#333"/>
  <circle cx="368" cy="426" r="6" fill="#333"/>
  <circle cx="423" cy="437" r="6" fill="#333"/>
  <circle cx="282" cy="481" r="6" fill="#333"/>
  <circle cx="337" cy="488" r="6" fill="#333"/>
  <circle cx="405" cy="474" r="6" fill="#333"/>
  <circle cx="466" cy="485" r="6" fill="#333"/>
  <circle cx="301" cy="533" r="6" fill="#333"/>
  <circle cx="356" cy="540" r="6" fill="#333"/>
  <circle cx="411" cy="525" r="6" fill="#333"/>
  <circle cx="466" cy="540" r="6" fill="#333"/>
  <circle cx="282" cy="585" r="6" fill="#333"/>
  <circle cx="344" cy="592" r="6" fill="#333"/>
  <circle cx="399" cy="577" r="6" fill="#333"/>
  <circle cx="454" cy="596" r="6" fill="#333"/>
  <circle cx="319" cy="633" r="6" fill="#333"/>
  <circle cx="399" cy="640" r="6" fill="#333"/>

</svg>
